<svg width="23" height="22" viewBox="0 0 23 22" fill="none" xmlns="http://www.w3.org/2000/svg">
<path d="M11.3777 5.40454C8.27222 5.40454 5.76733 7.90942 5.76733 11.0149C5.76733 14.1204 8.27222 16.6252 11.3777 16.6252C14.4832 16.6252 16.988 14.1204 16.988 11.0149C16.988 7.90942 14.4832 5.40454 11.3777 5.40454ZM11.3777 14.6624C9.37085 14.6624 7.73022 13.0266 7.73022 11.0149C7.73022 9.00317 9.36597 7.36743 11.3777 7.36743C13.3894 7.36743 15.0251 9.00317 15.0251 11.0149C15.0251 13.0266 13.3845 14.6624 11.3777 14.6624V14.6624ZM18.5261 5.17505C18.5261 5.90259 17.9402 6.48364 17.2175 6.48364C16.49 6.48364 15.9089 5.89771 15.9089 5.17505C15.9089 4.45239 16.4949 3.86645 17.2175 3.86645C17.9402 3.86645 18.5261 4.45239 18.5261 5.17505ZM22.2419 6.50317C22.1589 4.75024 21.7585 3.19751 20.4744 1.91821C19.1951 0.638916 17.6423 0.238525 15.8894 0.150635C14.0828 0.0480957 8.66772 0.0480957 6.86108 0.150635C5.11304 0.233643 3.5603 0.634033 2.27612 1.91333C0.991943 3.19263 0.596436 4.74536 0.508545 6.49829C0.406006 8.30493 0.406006 13.72 0.508545 15.5266C0.591553 17.2795 0.991943 18.8323 2.27612 20.1116C3.5603 21.3909 5.10815 21.7913 6.86108 21.8791C8.66772 21.9817 14.0828 21.9817 15.8894 21.8791C17.6423 21.7961 19.1951 21.3958 20.4744 20.1116C21.7537 18.8323 22.1541 17.2795 22.2419 15.5266C22.3445 13.72 22.3445 8.30981 22.2419 6.50317V6.50317ZM19.908 17.4651C19.5271 18.4221 18.7898 19.1594 17.8279 19.5452C16.3875 20.1165 12.9695 19.9846 11.3777 19.9846C9.78589 19.9846 6.36304 20.1116 4.92749 19.5452C3.97046 19.1643 3.23315 18.427 2.84741 17.4651C2.27612 16.0247 2.40796 12.6067 2.40796 11.0149C2.40796 9.4231 2.28101 6.00024 2.84741 4.5647C3.22827 3.60767 3.96558 2.87036 4.92749 2.48462C6.36792 1.91333 9.78589 2.04517 11.3777 2.04517C12.9695 2.04517 16.3923 1.91821 17.8279 2.48462C18.7849 2.86548 19.5222 3.60278 19.908 4.5647C20.4792 6.00513 20.3474 9.4231 20.3474 11.0149C20.3474 12.6067 20.4792 16.0295 19.908 17.4651Z" fill="white"/>
</svg>
